# xmcd CD database file
#
# Track frame offsets:
#	150
#	35166
#	57934
#	78332
#	97108
#	117097
#	141654
#	161262
#	184852
#
# Disc length: 2776 seconds
#
# Revision: 0
# Processed by: cddbd v1.5.2PL0 Copyright (c) Steve Scherf et al.
# Submitted via: CDex 1.70beta2
#
DISCID=7b0ad609
DTITLE=Gary Tu - Look East
DYEAR=2006
DGENRE=Jazz
TTITLE0=Look East
TTITLE1=The Cube
TTITLE2=The Road to the Sky
TTITLE3=Sun Rise
TTITLE4=Passing Solitude
TTITLE5=Falling Grace
TTITLE6=Airegin
TTITLE7=Simone
TTITLE8=Milestones
EXTD=YEAR: 2006
EXTT0=
EXTT1=
EXTT2=
EXTT3=
EXTT4=
EXTT5=
EXTT6=
EXTT7=
EXTT8=
PLAYORDER=
